<svg width="28" height="20" viewBox="0 0 28 20" fill="none" xmlns="http://www.w3.org/2000/svg">
<g clip-path="url(#clip0_92_918)">
<rect width="28" height="20" rx="2" fill="white"/>
<mask id="mask0_92_918" style="mask-type:alpha" maskUnits="userSpaceOnUse" x="0" y="0" width="28" height="20">
<rect width="28" height="20" rx="2" fill="white"/>
</mask>
<g mask="url(#mask0_92_918)">
<path fill-rule="evenodd" clip-rule="evenodd" d="M0 6.66667H28V0H0V6.66667Z" fill="#24AAD5"/>
<path fill-rule="evenodd" clip-rule="evenodd" d="M0 20H28V13.3334H0V20Z" fill="#21BF75"/>
<path fill-rule="evenodd" clip-rule="evenodd" d="M0 13.3333H28V6.66663H0V13.3333Z" fill="#ED1845"/>
<g filter="url(#filter0_d_92_918)">
<path fill-rule="evenodd" clip-rule="evenodd" d="M14 12C14.4113 12 14.7935 11.8759 15.1114 11.663C15.0746 11.6654 15.0374 11.6667 15 11.6667C14.0795 11.6667 13.3333 10.9205 13.3333 10C13.3333 9.07954 14.0795 8.33335 15 8.33335C15.0374 8.33335 15.0746 8.33459 15.1115 8.33702C14.7936 8.12415 14.4113 8 14 8C12.8954 8 12 8.89543 12 10C12 11.1046 12.8954 12 14 12ZM16 10C16 10.3682 15.7016 10.6667 15.3334 10.6667C14.9652 10.6667 14.6667 10.3682 14.6667 10C14.6667 9.63183 14.9652 9.33335 15.3334 9.33335C15.7016 9.33335 16 9.63183 16 10Z" fill="white"/>
</g>
</g>
</g>
<defs>
<filter id="filter0_d_92_918" x="12" y="8" width="4" height="5" filterUnits="userSpaceOnUse" color-interpolation-filters="sRGB">
<feFlood flood-opacity="0" result="BackgroundImageFix"/>
<feColorMatrix in="SourceAlpha" type="matrix" values="0 0 0 0 0 0 0 0 0 0 0 0 0 0 0 0 0 0 127 0" result="hardAlpha"/>
<feOffset dy="1"/>
<feColorMatrix type="matrix" values="0 0 0 0 0 0 0 0 0 0 0 0 0 0 0 0 0 0 0.06 0"/>
<feBlend mode="normal" in2="BackgroundImageFix" result="effect1_dropShadow_92_918"/>
<feBlend mode="normal" in="SourceGraphic" in2="effect1_dropShadow_92_918" result="shape"/>
</filter>
<clipPath id="clip0_92_918">
<rect width="28" height="20" rx="4" fill="white"/>
</clipPath>
</defs>
</svg>
