<svg width="28" height="20" viewBox="0 0 28 20" fill="none" xmlns="http://www.w3.org/2000/svg">
<g clip-path="url(#clip0_5_331)">
<rect width="28" height="20" rx="2" fill="white"/>
<mask id="mask0_5_331" style="mask-type:alpha" maskUnits="userSpaceOnUse" x="0" y="0" width="28" height="20">
<rect width="28" height="20" rx="2" fill="white"/>
</mask>
<g mask="url(#mask0_5_331)">
<rect width="28" height="20" fill="#0A17A7"/>
<path fill-rule="evenodd" clip-rule="evenodd" d="M6.67367 13.3333L-2.77368 19.7056L-1.2825 21.9164L10.6666 13.8566V21.3333H17.3333V13.8566L29.2825 21.9164L30.7736 19.7057L21.3263 13.3333H28V6.66665H21.3262L30.7736 0.294272L29.2824 -1.91649L17.3333 6.14329V-1.33335H10.6666V6.14332L-1.28249 -1.91647L-2.77367 0.294293L6.67373 6.66665H-1.88351e-05V13.3333H6.67367Z" fill="white"/>
<path d="M18.668 6.33219L31.3333 -2" stroke="#DB1F35" stroke-width="0.666667" stroke-linecap="round"/>
<path d="M20.0128 13.6975L31.3666 21.3503" stroke="#DB1F35" stroke-width="0.666667" stroke-linecap="round"/>
<path d="M8.00556 6.31046L-3.83746 -1.67099" stroke="#DB1F35" stroke-width="0.666667" stroke-linecap="round"/>
<path d="M9.29006 13.6049L-3.83746 22.3105" stroke="#DB1F35" stroke-width="0.666667" stroke-linecap="round"/>
<path fill-rule="evenodd" clip-rule="evenodd" d="M0 12H12V20H16V12H28V8H16V0H12V8H0V12Z" fill="#E6273E"/>
</g>
</g>
<defs>
<clipPath id="clip0_5_331">
<rect width="28" height="20" rx="4" fill="white"/>
</clipPath>
</defs>
</svg>
